<?xml version="1.0" encoding="UTF-8"?>
<svg id="Layer_1" xmlns="http://www.w3.org/2000/svg" version="1.1" viewBox="0 0 802 246" fill="currentColor">
  <!-- Generator: Adobe Illustrator 29.3.0, SVG Export Plug-In . SVG Version: 2.1.0 Build 146)  -->
  <path d="M483.95,107.05l8.06,37.94,11.08-37.89,13.02.48,11.87,37.42,7.47-37.04,12.55-.95-12.94,55.55-14.96.34-10.11-37.9c-1.49.14-1.56,1.48-1.95,2.54-3.96,10.81-5.82,24.19-9.14,35.36l-14.96-.34-12.95-54.06c-.11-2.09-.02-1.28,1.48-1.5,3.45-.5,7.89.31,11.48.06Z"/>
  <path d="M620,104.98l-12.41,6.1c-4.88-13.84-26.39-14.63-32.98-1.97-6.92,13.29-5.08,40.5,13.85,41.93,12.29.93,16.08-3.7,21.03-13.94l11.1,5.88c-5.39,25.22-41.9,27.61-56.55,9.5-11.33-14-10.93-42.98,2.08-55.87,13.84-13.7,47.1-12.45,53.89,8.37Z"/>
  <path d="M349.01,137c.72-.53,12.07,4.95,11.87,7.31-9.13,27.45-50.3,25.85-61.06.36-5.62-13.31-4.17-35.48,5.67-46.69,13.09-14.91,46.31-14.43,54.38,5.7l-.86,1.8-10.42,5.44c-4.98-11.22-19.5-13.96-29.09-6.92-9.99,7.35-10.02,32.51-2.52,41.51,8.71,10.46,30.57,6.39,32.03-8.52Z"/>
  <path d="M464,138h-37c.36,11.29,8.1,16.12,18.82,13.31,5.05-1.32,6.8-6,7.78-6.23,1.61-.39,9.69,4.29,9.28,7.19-.87,6.05-12.89,11.18-18.39,11.71-23.9,2.3-33.72-13.34-31.48-35.47,2.43-24.05,37.4-31.05,48.02-12.05.52.92,2.96,6.65,2.96,7.04v14.5ZM427,129h24c-.58-17.12-22.01-15.77-24,0Z"/>
  <path d="M679.98,152.02l1.09,9.32c-8.19,3.76-16.98,2.73-20.58-6.34-9.85,17.62-38.51,8.4-32.65-12.67,4.26-15.34,26.82-10.13,31.23-16.77,6.07-9.12-9.86-9.21-16.32-6.31-3.47,1.56-5.25,4.86-8.74,5.74l-4.9-7.7c-.82-3.09,5.98-6.99,8.51-8.17,9.68-4.48,26.86-5.78,33.21,4.54,5.49,8.93-.45,26.03,2.62,35.38,1.14,3.49,3.36,3.05,6.53,2.97ZM659.99,135c-4.31,3.48-12.16,2.31-16.07,5.42-4.27,3.41-3.67,11.12,1.79,12.35,12.94,2.92,15.42-7.29,14.28-17.78Z"/>
  <path d="M745.24,125.76c5.28,5.28,26.86,1.25,28.78,16.71,2.71,21.88-22.8,26.31-38.07,18.08-10.72-5.77-6.7-9.15.58-15.53l1.41.02c2.31,8.82,27.72,11.22,21.57-1.06-2.41-4.81-25.45-3.08-28.28-16.71-4.8-23.14,28.91-27.77,40.69-13.63l-6.49,8.35c-1.52.35-9.19-8.01-18.17-4.23-3.09,1.3-4.64,5.38-2.02,8Z"/>
  <path d="M386,163c-3.05-.61-13.82,1.55-14.86-1.64v-52.72c1.03-3.15,10.92-1.06,13.86-1.64.79.79-1.61,8.95,1.48,8.01,2.99-8.12,13.43-10.76,20.39-6.43l-1.9,11.41c-1.08,1.04-10.82-4.1-16.43,4.07-.51.74-2.55,5.06-2.55,5.45v33.5Z"/>
  <path d="M704,163h-14v-56h14v8c5.46-7.03,13.1-11.78,21.78-6.55l-2.24,10.58c-1.57,2.24-5.39.06-7.79.2-5.01.31-8.65,3.13-10.08,7.93-.34,1.14-1.67,7.62-1.67,8.33v27.5Z"/>
  <path d="M244.74,124.73c0,56.79-46.04,102.83-102.83,102.83s-102.83-46.04-102.83-102.83S85.12,21.9,141.91,21.9s102.83,46.04,102.83,102.83ZM226.99,111c-7.06-49.26-56.99-83.69-105.78-71.28-32.23,8.2-60.45,37.87-64.21,71.28,11.46-.64,23.05-3.35,34.5-3.99,14.31-.8,29.37,3.5,41-7l2.68-26.32,8.31-7.69c.7,4.57,3.64,3.75,5.49,5.51,4.01,3.83.64,21.96,3.21,28.81,10.97,10.19,26.41,5.92,40.3,6.7,11.46.64,23.01,3.34,34.5,3.99ZM110.5,198h27l-5.44-56.56c-12.42-1.81-25.11-1.21-37.55-2.45-11.21-1.11-24.02-4.71-35-5.03-2.05-.06-3.57-.82-3.55,1.55.03,4.28,2.38,12.99,3.75,17.28,7.61,23.74,25.84,41.35,47.79,52.21.73-1.96.34-6.25,2.99-6.99ZM147,198h27.5c1.41,0,3.09,4.39,2.51,6,27.77-11.13,48.36-40.33,51-70.01-25.24,2.76-50.41,6.71-75.96,7.06l-5.05,56.95Z"/>
</svg>